<?xml version="1.0" encoding="UTF-8"?>
<svg version="1.1" xmlns="http://www.w3.org/2000/svg" width="512" height="512">
<path d="M0 0 C1.01790619 0.00215515 2.03581238 0.0043103 3.08456421 0.00653076 C17.69363523 0.05620146 32.02575853 0.30709809 46.375 3.3125 C47.34985352 3.51117676 48.32470703 3.70985352 49.32910156 3.91455078 C86.24061921 11.63577862 120.90178362 25.97314294 151.375 48.3125 C152.2424585 48.94454346 152.2424585 48.94454346 153.12744141 49.58935547 C160.37723416 54.90780842 167.10620794 60.63229802 173.65625 66.78125 C175.95412963 68.92065518 178.29158807 70.9726899 180.6875 73 C183.94952617 75.83245894 186.76563412 78.88522849 189.55078125 82.18359375 C190.78419972 83.62302216 192.05413567 85.03182121 193.35546875 86.41015625 C205.65985595 99.47656379 215.47661398 114.78779807 224.375 130.3125 C224.80409668 131.06080078 225.23319336 131.80910156 225.67529297 132.58007812 C238.71070917 155.62033667 247.38567422 180.84839856 252.6875 206.75 C252.83485596 207.46889404 252.98221191 208.18778809 253.1340332 208.9284668 C256.10789088 224.57475609 256.74800362 240.04818046 256.6875 255.9375 C256.68534485 256.95540619 256.6831897 257.97331238 256.68096924 259.02206421 C256.63129854 273.63113523 256.38040191 287.96325853 253.375 302.3125 C253.07698486 303.77478027 253.07698486 303.77478027 252.77294922 305.26660156 C245.05172138 342.17811921 230.71435706 376.83928362 208.375 407.3125 C207.9536377 407.89080566 207.53227539 408.46911133 207.09814453 409.06494141 C201.77969158 416.31473416 196.05520198 423.04370794 189.90625 429.59375 C187.76684482 431.89162963 185.7148101 434.22908807 183.6875 436.625 C180.85504106 439.88702617 177.80227151 442.70313412 174.50390625 445.48828125 C173.06447784 446.72169972 171.65567879 447.99163567 170.27734375 449.29296875 C157.21093621 461.59735595 141.89970193 471.41411398 126.375 480.3125 C125.62669922 480.74159668 124.87839844 481.17069336 124.10742188 481.61279297 C101.06716333 494.64820917 75.83910144 503.32317422 49.9375 508.625 C49.21860596 508.77235596 48.49971191 508.91971191 47.7590332 509.0715332 C32.11274391 512.04539088 16.63931954 512.68550362 0.75 512.625 C-0.77685928 512.62176727 -0.77685928 512.62176727 -2.33456421 512.61846924 C-16.94363523 512.56879854 -31.27575853 512.31790191 -45.625 509.3125 C-47.08728027 509.01448486 -47.08728027 509.01448486 -48.57910156 508.71044922 C-85.49061921 500.98922138 -120.15178362 486.65185706 -150.625 464.3125 C-151.20330566 463.8911377 -151.78161133 463.46977539 -152.37744141 463.03564453 C-159.62723416 457.71719158 -166.35620794 451.99270198 -172.90625 445.84375 C-175.20412963 443.70434482 -177.54158807 441.6523101 -179.9375 439.625 C-183.19952617 436.79254106 -186.01563412 433.73977151 -188.80078125 430.44140625 C-190.03419972 429.00197784 -191.30413567 427.59317879 -192.60546875 426.21484375 C-204.46361369 413.62231461 -213.64352339 398.99385311 -222.47949219 384.20214844 C-224.73241597 380.48568849 -227.16176832 376.89148123 -229.625 373.3125 C-231.46293589 370.55559617 -232.16326182 368.8175424 -233.015625 365.6953125 C-234.46264204 360.685152 -236.34477673 355.98367877 -238.375 351.1875 C-244.37297894 336.55176309 -248.7714959 321.36821156 -251.9375 305.875 C-252.08477539 305.15634766 -252.23205078 304.43769531 -252.38378906 303.69726562 C-255.3584008 288.05094722 -255.99800404 272.57692807 -255.9375 256.6875 C-255.93534485 255.66959381 -255.9331897 254.65168762 -255.93096924 253.60293579 C-255.88129854 238.99386477 -255.63040191 224.66174147 -252.625 210.3125 C-252.42632324 209.33764648 -252.22764648 208.36279297 -252.02294922 207.35839844 C-244.30172138 170.44688079 -229.96435706 135.78571638 -207.625 105.3125 C-206.99295654 104.4450415 -206.99295654 104.4450415 -206.34814453 103.56005859 C-201.02969158 96.31026584 -195.30520198 89.58129206 -189.15625 83.03125 C-187.01684482 80.73337037 -184.9648101 78.39591193 -182.9375 76 C-180.10504106 72.73797383 -177.05227151 69.92186588 -173.75390625 67.13671875 C-172.31447784 65.90330028 -170.90567879 64.63336433 -169.52734375 63.33203125 C-156.46093621 51.02764405 -141.14970193 41.21088602 -125.625 32.3125 C-124.87669922 31.88340332 -124.12839844 31.45430664 -123.35742188 31.01220703 C-100.31716333 17.97679083 -75.08910144 9.30182578 -49.1875 4 C-48.46860596 3.85264404 -47.74971191 3.70528809 -47.0090332 3.5534668 C-31.36274391 0.57960912 -15.88931954 -0.06050362 0 0 Z " fill="#FF5733" transform="translate(255.625,-0.3125)"/>
<path d="M0 0 C8.06014719 6.3340736 12.51818968 14.46424948 14.04296875 24.60546875 C16.14270283 57.20898672 1.42387096 84.48299132 -14.95703125 111.60546875 C-14.2403125 110.86425781 -13.52359375 110.12304688 -12.78515625 109.359375 C-2.42221471 99.26838911 8.49697929 93.34804972 22.97241211 93.28417969 C32.91618724 93.46104289 42.5260043 96.35702911 49.80859375 103.28515625 C57.88496285 111.73480291 60.17744071 121.42068783 60.21655273 132.83642578 C60.22323975 133.65163696 60.22992676 134.46684814 60.23681641 135.3067627 C60.25082779 137.07078711 60.26273417 138.83482923 60.27276421 140.59888077 C60.28921638 143.38938148 60.31245289 146.1797498 60.33766174 148.97018433 C60.40834332 156.90176785 60.46868791 164.83340309 60.51977539 172.76513672 C60.55152528 177.62093264 60.59278114 182.47657183 60.63997078 187.33224106 C60.65600374 189.1830146 60.66831932 191.03382417 60.67687798 192.88464737 C60.68900139 195.46769449 60.71313545 198.05037091 60.73999023 200.63330078 C60.74087395 201.78353226 60.74087395 201.78353226 60.74177551 202.95700073 C60.79360208 206.70967363 60.90809912 208.40316431 63.04296875 211.60546875 C65.91456525 212.27337239 65.91456525 212.27337239 69.04296875 211.60546875 C73.20499998 208.25554117 76.04210875 203.97815046 79.04296875 199.60546875 C80.48158169 199.69293159 81.91894383 199.80112223 83.35546875 199.91796875 C84.55623047 200.00498047 84.55623047 200.00498047 85.78125 200.09375 C88.47955185 200.70424662 89.44544283 201.36071368 91.04296875 203.60546875 C92.17811397 210.25022124 88.60919356 215.82011448 85.0078125 221.0859375 C80.84654947 226.42195073 76.3071445 229.98481835 70.04296875 232.60546875 C67.31209806 232.91668707 64.8871975 233.08350144 62.16796875 233.04296875 C61.46051514 233.03539551 60.75306152 233.02782227 60.02416992 233.02001953 C52.4989902 232.78233662 48.4619007 231.0244007 43.23046875 225.79296875 C37.87206849 217.98501408 36.89820098 210.65567506 36.88525391 201.40039062 C36.88017319 200.59960587 36.87509247 199.79882111 36.86985779 198.97377014 C36.85919964 197.24359714 36.85056181 195.51341075 36.84373856 193.78321838 C36.83189294 191.04221528 36.81242777 188.30136575 36.7906189 185.5604248 C36.72917847 177.77031568 36.67492709 169.98022578 36.64160156 162.18994141 C36.62063951 157.41721338 36.58533144 152.64477181 36.54084396 147.87220764 C36.52670455 146.05741243 36.51796618 144.24256662 36.51478958 142.42771912 C36.50987226 139.88835698 36.48669596 137.34975425 36.45947266 134.81054688 C36.46247879 134.0654335 36.46548492 133.32032013 36.46858215 132.55262756 C36.39366185 127.8387699 35.52516516 124.61255779 33.04296875 120.60546875 C27.23126074 115.22963884 22.21087605 115.24942719 14.55078125 115.3359375 C9.79654488 115.70124074 6.84904936 116.80310138 3.04296875 119.60546875 C2.32882812 120.10691406 1.6146875 120.60835938 0.87890625 121.125 C-16.81756298 135.08149377 -25.33439191 164.27707808 -27.95703125 185.60546875 C-28.5099547 193.77788833 -28.39766309 201.99612463 -28.39282227 210.18334961 C-28.39637927 212.9741758 -28.42361722 215.76403355 -28.453125 218.5546875 C-28.44494247 219.40568527 -28.43675995 220.25668304 -28.42832947 221.13346863 C-28.50250453 226.98846062 -28.50250453 226.98846062 -30.80102539 230.10864258 C-35.44154958 233.33036761 -40.51222904 233.10913466 -45.95703125 232.60546875 C-50.47018914 230.57915296 -50.47018914 230.57915296 -51.95703125 227.60546875 C-52.07591081 225.94147592 -52.13415069 224.272976 -52.16235352 222.60498047 C-52.18229874 221.56405243 -52.20224396 220.52312439 -52.22279358 219.45065308 C-52.24786232 217.75998215 -52.24786232 217.75998215 -52.2734375 216.03515625 C-52.2942186 214.88379181 -52.31499969 213.73242737 -52.33641052 212.5461731 C-52.4019479 208.85766735 -52.46081053 205.16908872 -52.51953125 201.48046875 C-52.56271248 198.98436737 -52.60632663 196.48827345 -52.65039062 193.9921875 C-52.75763356 187.86335894 -52.85939214 181.73445742 -52.95703125 175.60546875 C-53.50117676 176.69520996 -54.04532227 177.78495117 -54.60595703 178.90771484 C-55.3297391 180.35645206 -56.05353543 181.80518215 -56.77734375 183.25390625 C-57.31355347 184.32789673 -57.31355347 184.32789673 -57.8605957 185.42358398 C-67.22000584 204.15312523 -77.50999254 223.09178055 -97.6328125 231.7578125 C-102.14056691 232.90726339 -106.38785815 232.85848391 -111.01953125 232.79296875 C-111.95039551 232.78797363 -112.88125977 232.78297852 -113.84033203 232.77783203 C-120.00159447 232.71693521 -126.05035201 232.38728849 -132.16796875 231.62890625 C-135.07217929 231.46970209 -135.07217929 231.46970209 -138.1875 232.5546875 C-154.33370041 237.05554544 -171.30980188 233.01544833 -185.64453125 225.16796875 C-190.01483545 222.41122373 -193.40607537 220.14050142 -195.95703125 215.60546875 C-196.14453125 212.04296875 -196.14453125 212.04296875 -194.95703125 208.60546875 C-192.09641684 205.47875067 -190.33254877 203.76346738 -186.06640625 203.2734375 C-182.40920741 203.66396753 -180.83599683 204.69142298 -177.89453125 206.85546875 C-167.76679844 213.62101384 -156.4412014 216.47639761 -144.3828125 214.09765625 C-138.24116261 212.33129744 -134.64980533 209.45970826 -131.3515625 203.8984375 C-128.70803171 197.65615051 -128.91592705 189.81152972 -130.54296875 183.23828125 C-131.48943693 181.14563141 -132.58785968 179.45103701 -133.95703125 177.60546875 C-134.80201172 176.43757813 -134.80201172 176.43757813 -135.6640625 175.24609375 C-143.3301085 165.3373995 -152.499929 155.80777272 -162.21484375 147.890625 C-164.65177467 145.85984924 -166.62582512 143.85076845 -168.64453125 141.41796875 C-170.71811922 138.92489631 -172.21244691 137.43519164 -174.95703125 135.60546875 C-175.08360107 136.32428223 -175.2101709 137.0430957 -175.34057617 137.78369141 C-181.91649525 167.88447266 -202.60606497 205.25414943 -228.95703125 222.60546875 C-237.43904976 227.63910487 -245.97544569 232.03819605 -255.95703125 232.60546875 C-256.71677246 232.65171387 -257.47651367 232.69795898 -258.25927734 232.74560547 C-275.38915448 233.65501327 -287.51604971 230.87217386 -300.95703125 219.60546875 C-303.06580423 217.67242685 -305.01262837 215.70752591 -306.95703125 213.60546875 C-311.04473003 215.09190467 -314.55502987 217.10319764 -318.26953125 219.35546875 C-325.8269245 223.78904513 -333.6442729 226.88961527 -341.95703125 229.60546875 C-342.98570312 229.94707031 -344.014375 230.28867187 -345.07421875 230.640625 C-350.88341197 232.33300514 -356.49915278 232.92013143 -362.51953125 233.04296875 C-363.5569043 233.07656494 -363.5569043 233.07656494 -364.61523438 233.11083984 C-367.77297736 233.09597435 -369.5226736 232.99233203 -371.921875 230.85546875 C-373.69292269 227.00594622 -373.15166301 223.59468553 -371.95703125 219.60546875 C-369.45703125 216.60546875 -369.45703125 216.60546875 -366.95703125 214.60546875 C-366.62703125 214.27546875 -366.29703125 213.94546875 -365.95703125 213.60546875 C-364.14534363 213.5227013 -362.33248556 213.46549939 -360.51953125 213.41796875 C-348.40709018 212.5423706 -337.08016237 208.01786268 -326.39453125 202.41796875 C-325.75725098 202.08531006 -325.1199707 201.75265137 -324.46337891 201.40991211 C-320.72766221 199.39541311 -320.72766221 199.39541311 -318.95703125 195.60546875 C-319.79382674 193.20115496 -320.69133182 190.93199099 -321.70703125 188.60546875 C-329.53818112 169.86446774 -333.10723793 146.33700682 -326.27734375 126.70703125 C-319.38622655 110.51902221 -311.08302836 101.35308398 -294.95703125 94.60546875 C-286.48869556 91.69766674 -274.59656071 92.68910474 -266.4921875 96.1484375 C-259.06198731 100.41879909 -252.64126779 106.29952926 -249.95703125 114.60546875 C-245.21406855 132.92759862 -251.55185396 149.90626107 -260.70410156 165.57470703 C-268.05821093 177.49432544 -277.95294088 187.89088582 -287.95703125 197.60546875 C-286.48141899 201.3148808 -284.53386665 202.93342369 -281.26953125 205.16796875 C-280.02623047 206.03615234 -280.02623047 206.03615234 -278.7578125 206.921875 C-272.48053997 210.69524245 -267.41285414 212.14116372 -260.20703125 212.04296875 C-259.41353271 212.03394531 -258.62003418 212.02492188 -257.80249023 212.015625 C-243.68424656 211.6013556 -233.51505009 204.60178911 -223.89453125 194.60546875 C-218.00186504 187.84431132 -213.44481998 180.34533349 -208.95703125 172.60546875 C-208.29058594 171.48011719 -207.62414062 170.35476563 -206.9375 169.1953125 C-200.02023871 156.92456997 -195.05004205 143.71141611 -189.95703125 130.60546875 C-189.54678711 129.57897217 -189.13654297 128.55247559 -188.71386719 127.49487305 C-188.34036133 126.52976807 -187.96685547 125.56466309 -187.58203125 124.5703125 C-187.08316406 123.29982056 -187.08316406 123.29982056 -186.57421875 122.00366211 C-185.67552339 118.5116192 -186.44787609 115.89370353 -187.35546875 112.4765625 C-188.99441694 104.65430977 -189.65539548 94.21409782 -185.296875 87.21875 C-181.12747982 82.19845784 -177.37482116 79.01642595 -170.7734375 78.40234375 C-165.98993415 78.30286014 -162.81743825 78.44695393 -158.95703125 81.60546875 C-156.25128447 85.66408892 -156.18648636 88.92392291 -156.95703125 93.60546875 C-161.39411734 106.04255484 -161.39411734 106.04255484 -163.95703125 108.60546875 C-163.28569234 121.36090798 -155.96685738 128.47255846 -146.95703125 136.60546875 C-144.21234073 138.94422811 -141.42819532 141.21625824 -138.609375 143.46484375 C-134.22665166 147.00200486 -130.08210125 150.77365018 -125.95703125 154.60546875 C-125.11011719 155.3634375 -124.26320313 156.12140625 -123.390625 156.90234375 C-112.63433854 166.95249232 -106.13459635 178.51997839 -105.58203125 193.29296875 C-105.6605918 200.55981966 -107.43689347 206.83259847 -109.95703125 213.60546875 C-101.70237262 212.80751842 -95.89823904 211.54667654 -89.95703125 205.60546875 C-89.28671875 204.93515625 -88.61640625 204.26484375 -87.92578125 203.57421875 C-75.37592116 189.56930242 -52.86012389 155.16273278 -52.82572937 135.53820801 C-52.82172119 134.71171249 -52.81771301 133.88521698 -52.81358337 133.03367615 C-52.81411209 132.12988724 -52.81464081 131.22609833 -52.81518555 130.29492188 C-52.81171112 129.33989273 -52.80823669 128.38486359 -52.80465698 127.40089417 C-52.79729669 125.32201216 -52.79195277 123.24312228 -52.78836632 121.16423035 C-52.78118552 117.85702221 -52.7655008 114.54996114 -52.74702454 111.24279785 C-52.69467377 101.83718041 -52.64671986 92.43163846 -52.63110352 83.02587891 C-52.6209232 77.27098441 -52.59133536 71.5164533 -52.54978371 65.76170349 C-52.53759722 63.58364128 -52.53232944 61.40552739 -52.53458214 59.22743225 C-52.54933421 40.28443902 -52.14124778 18.47685085 -38.64453125 3.60546875 C-28.59551197 -5.25239523 -11.66027056 -7.16474456 0 0 Z " fill="#FFFCFB" transform="translate(396.95703125,141.39453125)"/>
<path d="M0 0 C2.5 1.6875 2.5 1.6875 4.5 4.6875 C6.3194836 15.84216677 4.56302783 26.68263383 -0.5 36.6875 C-0.9228125 37.59371094 -1.345625 38.49992187 -1.78125 39.43359375 C-4.60693671 45.09318137 -8.13653421 50.08038821 -12 55.0625 C-12.45068848 55.64572021 -12.90137695 56.22894043 -13.36572266 56.82983398 C-16.41265266 60.64371949 -19.6602746 63.67218623 -23.5 66.6875 C-24.32101314 64.5031809 -25.13142482 62.31487564 -25.9375 60.125 C-26.38996094 58.90683594 -26.84242187 57.68867188 -27.30859375 56.43359375 C-29.7192467 48.85386857 -29.74217554 41.32321615 -29.8125 33.4375 C-29.84150391 32.36886719 -29.87050781 31.30023438 -29.90039062 30.19921875 C-29.97930163 20.20787169 -27.68631224 10.07454722 -20.5 2.6875 C-14.49476082 -2.48624452 -7.23882954 -2.71456108 0 0 Z " fill="#FF5835" transform="translate(120.5,257.3125)"/>
<path d="M0 0 C3.37748747 2.76339884 5.24798712 4.71885578 6 9 C8.00547231 36.62690033 0.14719006 61.90847354 -13 86 C-13.33 86 -13.66 86 -14 86 C-14.06984104 77.19353535 -14.12298301 68.38716761 -14.15543652 59.58048534 C-14.17102101 55.49016143 -14.19212543 51.4000285 -14.22631836 47.30981445 C-14.25917182 43.35459354 -14.27690712 39.39955509 -14.28463173 35.44420815 C-14.29012903 33.94329269 -14.30086243 32.44238601 -14.31719017 30.9415493 C-14.41945292 21.14231037 -14.51097479 11.31965877 -8.9375 2.875 C-6.00214127 0.03433026 -4.04854259 -0.56491292 0 0 Z " fill="#FF5835" transform="translate(382,158)"/>
<path d="M0 0 C0.33 0.66 0.66 1.32 1 2 C-0.21484375 4.8203125 -0.21484375 4.8203125 -1.9375 8.125 C-2.50339844 9.22070312 -3.06929688 10.31640625 -3.65234375 11.4453125 C-4.09707031 12.28835938 -4.54179687 13.13140625 -5 14 C-5.33 14 -5.66 14 -6 14 C-5.62257767 7.83543524 -3.84129692 4.82624485 0 0 Z " fill="#FF7456" transform="translate(374,264)"/>
</svg>
